<?xml version="1.0" encoding="UTF-8"?>
<svg width="512" height="512" viewBox="0 0 512 512" fill="none" xmlns="http://www.w3.org/2000/svg">
  <!-- Grape Cluster -->
  <g>
    <!-- Grapes -->
    <circle cx="256" cy="256" r="40" fill="#8B3DFF" />
    <circle cx="216" cy="216" r="40" fill="#A571FF" />
    <circle cx="296" cy="216" r="40" fill="#A571FF" />
    <circle cx="176" cy="276" r="40" fill="#8B3DFF" />
    <circle cx="336" cy="276" r="40" fill="#8B3DFF" />
    <circle cx="256" cy="316" r="40" fill="#6600EF" />
    
    <!-- Vine -->
    <path d="M256 120C256 120 180 200 180 280C180 360 256 380 256 380" stroke="#4CAF50" stroke-width="12" stroke-linecap="round"/>
    <path d="M256 120C256 120 332 200 332 280C332 360 256 380 256 380" stroke="#4CAF50" stroke-width="12" stroke-linecap="round"/>
    
    <!-- Leaves -->
    <path d="M200 160C200 160 160 140 140 180C120 220 180 240 200 220" fill="#4CAF50"/>
    <path d="M312 160C312 160 352 140 372 180C392 220 332 240 312 220" fill="#4CAF50"/>
  </g>
</svg> 